<?xml version="1.0" standalone="no"?>
<!DOCTYPE svg PUBLIC "-//W3C//DTD SVG 20010904//EN"
 "http://www.w3.org/TR/2001/REC-SVG-20010904/DTD/svg10.dtd">
<svg version="1.0" xmlns="http://www.w3.org/2000/svg"
 width="100.000000pt" height="100.000000pt" viewBox="0 0 100.000000 100.000000"
 preserveAspectRatio="xMidYMid meet">
<metadata>
Created by potrace 1.16, written by Peter Selinger 2001-2019
</metadata>
<g transform="translate(0.000000,100.000000) scale(0.024038,-0.024096)"
fill="#000000" stroke="none">
<path d="M20 2060 l0 -2060 2025 0 c1613 0 2025 3 2025 13 0 9 2 9 9 -1 5 -8
22 -12 42 -10 26 2 35 8 37 24 2 12 -4 28 -12 37 -21 20 -20 47 0 47 13 0 15
7 10 31 -3 17 -6 920 -6 2005 l0 1974 -2065 0 -2065 0 0 -2060z"/>
</g>
</svg>
